<svg width="9" height="6" viewBox="0 0 9 6" fill="none" xmlns="http://www.w3.org/2000/svg">
<path fill-rule="evenodd" clip-rule="evenodd" d="M5.6846 1.58738C5.6846 2.46855 4.98213 3.1751 4.10605 3.1751C3.22998 3.1751 2.52751 2.46855 2.52751 1.58738C2.52751 0.705879 3.22998 0 4.10605 0C4.98213 0 5.6846 0.705879 5.6846 1.58738ZM4.10604 6.00021C2.8193 6.00021 1.7206 5.79622 1.7206 4.98024C1.7206 4.16392 2.81225 3.95249 4.10604 3.95249C5.39279 3.95249 6.49149 4.15649 6.49149 4.97281C6.49149 5.78879 5.39984 6.00021 4.10604 6.00021ZM6.35916 1.61608C6.35916 2.06528 6.22518 2.48374 5.99013 2.83161C5.96595 2.86741 5.98744 2.91571 6.03009 2.92314C6.08885 2.93327 6.14963 2.93901 6.21142 2.9407C6.82759 2.95692 7.38063 2.55804 7.53342 1.95754C7.75974 1.06557 7.09521 0.264781 6.24902 0.264781C6.15702 0.264781 6.06904 0.274576 5.98341 0.292138C5.97166 0.29484 5.95924 0.300244 5.95252 0.310714C5.94446 0.323548 5.95051 0.340773 5.95857 0.351918C6.21276 0.710262 6.35916 1.1473 6.35916 1.61608ZM7.37963 3.56723C7.79366 3.64863 8.06598 3.8148 8.17881 4.05628C8.27417 4.25453 8.27417 4.48454 8.17881 4.68245C8.00621 5.05701 7.44981 5.17724 7.23356 5.20832C7.1889 5.21507 7.15297 5.17623 7.15767 5.13131C7.26815 4.09343 6.38939 3.60134 6.16206 3.4882C6.15232 3.48313 6.15031 3.47537 6.15131 3.47064C6.15198 3.46726 6.15601 3.46186 6.1634 3.46084C6.65533 3.45172 7.1842 3.51927 7.37963 3.56723ZM2.03921 2.9407C2.101 2.93901 2.16144 2.93361 2.22054 2.92314C2.26318 2.91571 2.28467 2.86741 2.2605 2.83161C2.02544 2.48374 1.89146 2.06528 1.89146 1.61608C1.89146 1.1473 2.03787 0.710262 2.29206 0.351918C2.30012 0.340773 2.30583 0.323548 2.2981 0.310714C2.29139 0.300582 2.27863 0.29484 2.26721 0.292138C2.18125 0.274576 2.09327 0.264781 2.00127 0.264781C1.15508 0.264781 0.49055 1.06557 0.717208 1.95754C0.869992 2.55804 1.42304 2.95692 2.03921 2.9407ZM2.09894 3.47057C2.09994 3.47564 2.09793 3.48307 2.08853 3.48847C1.86086 3.60162 0.9821 4.09371 1.09257 5.13125C1.09728 5.1765 1.06168 5.21501 1.01702 5.20859C0.800774 5.17752 0.244371 5.05728 0.071775 4.68273C-0.023925 4.48447 -0.023925 4.25481 0.071775 4.05655C0.1846 3.81507 0.45659 3.6489 0.870618 3.56717C1.06638 3.51955 1.59492 3.452 2.08718 3.46112C2.09457 3.46213 2.09826 3.46753 2.09894 3.47057Z" fill="#081D3F"/>
</svg>
