<svg width="8" height="8" viewBox="0 0 8 8" fill="none" xmlns="http://www.w3.org/2000/svg">
<path fill-rule="evenodd" clip-rule="evenodd" d="M0 4.00601C0 1.89885 1.684 0 4.008 0C6.27999 0 7.99999 1.86279 7.99999 3.99399C7.99999 6.46569 5.98399 7.99999 4 7.99999C3.344 7.99999 2.616 7.82373 2.032 7.47921C1.828 7.35503 1.656 7.26289 1.436 7.335L0.627999 7.57536C0.424 7.63945 0.24 7.47921 0.3 7.26289L0.567999 6.36554C0.611999 6.24136 0.603999 6.10916 0.54 6.005C0.196 5.37205 0 4.67901 0 4.00601ZM2.14798 4.52296C1.86798 4.52296 1.63598 4.29061 1.63598 4.01019C1.63598 3.72577 1.86398 3.49743 2.14798 3.49743C2.43198 3.49743 2.65998 3.72577 2.65998 4.01019C2.65998 4.29061 2.43198 4.51896 2.14798 4.52296ZM3.47996 4.00624C3.47996 4.29067 3.70796 4.51901 3.99196 4.52301C4.27596 4.52301 4.50396 4.29067 4.50396 4.01025C4.50396 3.72582 4.27596 3.49748 3.99196 3.49748C3.71196 3.49347 3.47996 3.72582 3.47996 4.00624ZM5.32399 4.01029C5.32399 4.29071 5.55199 4.52306 5.83599 4.52306C6.11999 4.52306 6.34799 4.29071 6.34799 4.01029C6.34799 3.72587 6.11999 3.49753 5.83599 3.49753C5.55199 3.49753 5.32399 3.72587 5.32399 4.01029Z" fill="#081D3F"/>
</svg>
