<svg width="2" height="1" viewBox="0 0 2 1" fill="none" xmlns="http://www.w3.org/2000/svg">
<path d="M1.57164 0.50001C1.57164 0.66812 1.57799 0.83479 1.59069 1.00002H0.0190456C0.00634853 0.834959 0 0.668289 0 0.50001V0.176235C2.53173e-05 0.184674 0.00239941 0.19294 0.00685642 0.200106C0.00685642 0.182584 0.00838006 0.165062 0.00939583 0.147794C0.0119352 0.0982755 0.0152365 0.0492646 0.0190456 0H1.59069C1.58688 0.0492646 1.58358 0.0982755 1.58104 0.147794C1.58104 0.165062 1.57926 0.182584 1.5785 0.200106C1.57619 0.1966 1.57448 0.19274 1.57342 0.188679C1.57342 0.186393 1.57342 0.184362 1.57215 0.18233C1.57201 0.180301 1.57201 0.178265 1.57215 0.176235L1.57164 0.50001Z" fill="#DB1B1B"/>
</svg>
