<svg width="1" height="1" viewBox="0 0 1 1" fill="none" xmlns="http://www.w3.org/2000/svg">
<path d="M1.00009 0.320183C0.969595 0.345665 0.939518 0.371982 0.909441 0.398717C0.718119 0.5679 0.53348 0.744601 0.35469 0.926733L0.0317812 0.692384C0.0186557 0.682991 0.00886016 0.669664 0.00381285 0.654333C-0.00123445 0.639002 -0.00127156 0.622462 0.00370672 0.607109C0.00868501 0.591755 0.0184205 0.578384 0.0315036 0.568932C0.0445868 0.55948 0.0603389 0.554436 0.0764791 0.554532H0.549772C0.565818 0.554453 0.581432 0.549328 0.594402 0.539881C0.607373 0.530434 0.617042 0.517145 0.62204 0.501898L0.768247 0.0524153C0.773227 0.037174 0.782898 0.0238975 0.795877 0.0144834C0.808857 0.00506939 0.824481 0 0.840515 0C0.856549 0 0.872173 0.00506939 0.885153 0.0144834C0.898132 0.0238975 0.907803 0.037174 0.912783 0.0524153L1.00009 0.320183Z" fill="#DBDBDB"/>
</svg>
