<svg width="1" height="3" viewBox="0 0 1 3" fill="none" xmlns="http://www.w3.org/2000/svg">
<path d="M0.000668397 2.50866C0.000702943 2.49866 0.00391969 2.48892 0.0098535 2.48086C0.0098535 2.49774 0.00811581 2.51487 0.00737107 2.532C0.00511596 2.52857 0.00343866 2.5248 0.00240612 2.52083C0.00240612 2.51859 0.00240613 2.51661 0.0011649 2.51462C0.000865841 2.51265 0.000699956 2.51066 0.000668397 2.50866ZM0.542839 0.0324049L0.629725 0.300015C0.632756 0.309213 0.638662 0.317195 0.646574 0.322782C0.654485 0.328369 0.663982 0.331266 0.673665 0.331045H0.954928C0.964454 0.331062 0.973732 0.334088 0.981434 0.339693C0.989137 0.345298 0.994871 0.353194 0.997818 0.362253C1.00076 0.371312 1.00077 0.38107 0.997839 0.390134C0.994907 0.399197 0.989185 0.407102 0.981491 0.412719L0.753849 0.578051C0.746279 0.583583 0.74063 0.591344 0.737692 0.600247C0.734754 0.60915 0.734674 0.618749 0.737464 0.6277L0.822613 0.896055C0.825387 0.905058 0.825262 0.914706 0.822254 0.923633C0.819246 0.932561 0.813508 0.940318 0.805851 0.945807C0.798195 0.951295 0.789006 0.954239 0.779585 0.95422C0.770164 0.954202 0.760987 0.951223 0.753352 0.945704L0.52571 0.780372C0.517975 0.774797 0.508682 0.771797 0.499148 0.771797C0.489613 0.771797 0.48032 0.774797 0.472585 0.780372L0.244943 0.945704C0.237308 0.951223 0.228131 0.954202 0.21871 0.95422C0.209289 0.954239 0.2001 0.951295 0.192444 0.945807C0.184787 0.940318 0.179049 0.932561 0.176041 0.923633C0.173033 0.914706 0.172908 0.905058 0.175682 0.896055L0.262569 0.628445C0.265359 0.619494 0.265279 0.609895 0.262341 0.600992C0.259403 0.592089 0.253754 0.584327 0.246184 0.578795L0.0185422 0.413464C0.010848 0.407847 0.00512598 0.399942 0.00219371 0.390878C-0.000738562 0.381815 -0.000731039 0.372057 0.0022152 0.362998C0.00516145 0.353939 0.0108956 0.346042 0.0185984 0.340438C0.0263012 0.334833 0.0355785 0.331806 0.0451046 0.33179H0.32612C0.335634 0.331798 0.344908 0.328803 0.352619 0.323231C0.360331 0.317659 0.366087 0.309795 0.369066 0.300759L0.455953 0.0331496C0.458568 0.0236845 0.464195 0.0153291 0.471983 0.00934803C0.479771 0.00336699 0.489296 8.58261e-05 0.499115 1.66064e-06C0.508934 -8.25048e-05 0.518514 0.00303469 0.526403 0.00888135C0.534292 0.014728 0.540062 0.022986 0.542839 0.0324049Z" fill="white"/>
</svg>
