<svg width="11" height="11" viewBox="0 0 11 11" fill="none" xmlns="http://www.w3.org/2000/svg">
<path d="M9.16663 6.41644V7.69977C9.16663 8.21315 9.16663 8.46984 9.06672 8.66592C8.97884 8.83841 8.83861 8.97864 8.66612 9.06652C8.47004 9.16643 8.21335 9.16643 7.69997 9.16643H6.41664M4.58331 1.83312H3.29998C2.7866 1.83312 2.52991 1.83312 2.33382 1.93303C2.16134 2.02091 2.02111 2.16114 1.93323 2.33362C1.83332 2.52971 1.83332 2.7864 1.83332 3.29978V4.58311M6.87497 4.12478L9.62496 1.37478M9.62496 1.37478H6.87497M9.62496 1.37478V4.12478M4.12498 6.87477L1.37498 9.62476M1.37498 9.62476H4.12498M1.37498 9.62476L1.37498 6.87477" stroke="#081D3F" stroke-width="0.896667" stroke-linecap="round" stroke-linejoin="round"/>
</svg>
