<svg width="11" height="11" viewBox="0 0 11 11" fill="none" xmlns="http://www.w3.org/2000/svg">
<g clip-path="url(#clip0_14_2108)">
<path fill-rule="evenodd" clip-rule="evenodd" d="M5.49679 2.35396C4.58043 1.28265 3.05232 0.99447 1.90418 1.97547C0.756032 2.95647 0.594389 4.59666 1.49603 5.75689C2.24569 6.72155 4.51441 8.75608 5.25798 9.41458C5.34117 9.48825 5.38276 9.52509 5.43128 9.53956C5.47363 9.55219 5.51996 9.55219 5.56231 9.53956C5.61083 9.52509 5.65242 9.48825 5.73561 9.41458C6.47917 8.75608 8.7479 6.72155 9.49755 5.75689C10.3992 4.59666 10.2573 2.94615 9.08941 1.97547C7.92153 1.00479 6.41316 1.28265 5.49679 2.35396Z" stroke="#081D3F" stroke-width="1.12083" stroke-linecap="round" stroke-linejoin="round"/>
</g>
<defs>
<clipPath id="clip0_14_2108">
<rect width="10.0875" height="10.0875" fill="white" transform="scale(1.09046)"/>
</clipPath>
</defs>
</svg>
