<svg width="1" height="1" viewBox="0 0 1 1" fill="none" xmlns="http://www.w3.org/2000/svg">
<path d="M0.613481 0.166473C0.57776 0.242868 0.543865 0.319524 0.511533 0.397745C0.435573 0.57939 0.367782 0.764946 0.30816 0.954413L0.257317 0.990916C0.249298 0.996712 0.239659 0.999841 0.229764 0.999861C0.219869 0.99988 0.210219 0.996789 0.202177 0.991024C0.194135 0.985259 0.188108 0.977112 0.184949 0.967735C0.18179 0.958358 0.181658 0.948225 0.184572 0.938769L0.275829 0.657697C0.27876 0.648296 0.278676 0.638214 0.27559 0.628863C0.272504 0.619512 0.266571 0.61136 0.258621 0.60555L0.019527 0.43164C0.0141405 0.427931 0.00962493 0.423095 0.00629331 0.417467C0.00296168 0.411839 0.000893745 0.405555 0.000232664 0.399048C-0.000422571 0.392456 0.00030988 0.385799 0.00238294 0.379506C0.004456 0.373214 0.00782367 0.367425 0.0122692 0.362513C0.0167147 0.357601 0.0221397 0.353674 0.0281946 0.350985C0.0342496 0.348296 0.0408004 0.346905 0.0474256 0.346901H0.341795C0.351843 0.346834 0.361613 0.343597 0.369712 0.337651C0.377812 0.331705 0.383828 0.323354 0.386902 0.313788L0.478159 0.032716C0.481268 0.0232029 0.487304 0.0149158 0.495405 0.00903994C0.503507 0.00316403 0.513258 0 0.523266 0C0.533274 0 0.543026 0.00316403 0.551128 0.00903994C0.559229 0.0149158 0.565265 0.0232029 0.568374 0.032716L0.613481 0.166473Z" fill="#DBDBDB"/>
</svg>
