<svg width="11" height="11" viewBox="0 0 11 11" fill="none" xmlns="http://www.w3.org/2000/svg">
<path d="M9.25507 7.00621C9.22905 7.06902 9.18499 7.12271 9.12846 7.16048C9.07193 7.19825 9.00547 7.21841 8.93748 7.21841H2.0625C1.99451 7.21841 1.92805 7.19825 1.87152 7.16048C1.81499 7.12271 1.77093 7.06902 1.74491 7.00621C1.71889 6.94339 1.71209 6.87428 1.72535 6.8076C1.73862 6.74091 1.77136 6.67966 1.81943 6.63159L5.25693 3.19411C5.28884 3.16219 5.32674 3.13687 5.36844 3.11959C5.41015 3.10231 5.45485 3.09342 5.49999 3.09342C5.54513 3.09342 5.58983 3.10231 5.63153 3.11959C5.67324 3.13687 5.71113 3.16219 5.74305 3.19411L9.18054 6.63159C9.22862 6.67966 9.26136 6.74092 9.27463 6.8076C9.28789 6.87428 9.28108 6.9434 9.25507 7.00621Z" fill="#081D3F"/>
</svg>
