<svg width="11" height="11" viewBox="0 0 11 11" fill="none" xmlns="http://www.w3.org/2000/svg">
<path d="M9.25507 3.99365C9.22905 3.93084 9.18499 3.87716 9.12846 3.83939C9.07193 3.80161 9.00547 3.78145 8.93748 3.78145H2.0625C1.99451 3.78145 1.92805 3.80161 1.87152 3.83939C1.81499 3.87716 1.77093 3.93085 1.74491 3.99366C1.71889 4.05647 1.71209 4.12559 1.72535 4.19227C1.73862 4.25895 1.77136 4.3202 1.81943 4.36828L5.25693 7.80576C5.28884 7.83768 5.32674 7.863 5.36844 7.88028C5.41015 7.89755 5.45485 7.90644 5.49999 7.90644C5.54513 7.90644 5.58983 7.89755 5.63153 7.88028C5.67324 7.863 5.71113 7.83768 5.74305 7.80576L9.18054 4.36828C9.22862 4.3202 9.26136 4.25895 9.27463 4.19227C9.28789 4.12559 9.28108 4.05647 9.25507 3.99365Z" fill="#5A5A5A"/>
</svg>
