<svg width="11" height="11" viewBox="0 0 11 11" fill="none" xmlns="http://www.w3.org/2000/svg">
<g clip-path="url(#clip0_14_1899)">
<path d="M2.97915 9.16659H2.29165C1.78539 9.16659 1.37498 8.75619 1.37498 8.24993V1.83328C1.37498 1.32702 1.78539 0.916611 2.29165 0.916611H8.7083C9.21456 0.916611 9.62496 1.32702 9.62496 1.83328V8.24993C9.62496 8.75619 9.21456 9.16659 8.7083 9.16659H8.0208M5.49997 8.70826C6.25936 8.70826 6.87497 8.09265 6.87497 7.33326C6.87497 6.57387 6.25936 5.95827 5.49997 5.95827C4.74058 5.95827 4.12498 6.57387 4.12498 7.33326C4.12498 8.09265 4.74058 8.70826 5.49997 8.70826ZM5.49997 8.70826L5.5098 8.70816L4.04645 10.1715L2.75009 8.87515L4.13398 7.49126M5.49997 8.70826L6.96334 10.1715L8.2597 8.87515L6.87581 7.49126M4.12498 2.74994H6.87497M3.20831 4.3541H7.79163" stroke="#081D3F" stroke-width="0.896667" stroke-linecap="round" stroke-linejoin="round"/>
</g>
<defs>
<clipPath id="clip0_14_1899">
<rect width="10.0875" height="10.0875" fill="white" transform="scale(1.09046)"/>
</clipPath>
</defs>
</svg>
