<svg width="11" height="11" viewBox="0 0 11 11" fill="none" xmlns="http://www.w3.org/2000/svg">
<g clip-path="url(#clip0_14_1864)">
<path d="M6.41666 1.04042V2.93358C6.41666 3.19027 6.41666 3.31862 6.46662 3.41666C6.51056 3.5029 6.58068 3.57302 6.66692 3.61696C6.76496 3.66691 6.89331 3.66691 7.15 3.66691H9.04316M7.33333 5.95855H3.66666M7.33333 7.79188H3.66666M4.58333 4.12522H3.66666M6.41666 0.91688H4.03333C3.26326 0.91688 2.87822 0.91688 2.58409 1.06675C2.32537 1.19857 2.11502 1.40892 1.98319 1.66764C1.83333 1.96177 1.83333 2.34681 1.83333 3.11688V7.88355C1.83333 8.65362 1.83333 9.03866 1.98319 9.33279C2.11502 9.59151 2.32537 9.80186 2.58409 9.93369C2.87822 10.0836 3.26326 10.0836 4.03333 10.0836H6.96666C7.73674 10.0836 8.12177 10.0836 8.4159 9.93369C8.67463 9.80186 8.88497 9.59151 9.0168 9.33279C9.16667 9.03866 9.16667 8.65362 9.16667 7.88355V3.66688L6.41666 0.91688Z" stroke="#081D3F" stroke-width="0.896667" stroke-linecap="round" stroke-linejoin="round"/>
</g>
<defs>
<clipPath id="clip0_14_1864">
<rect width="10.0875" height="10.0875" fill="white" transform="scale(1.09046)"/>
</clipPath>
</defs>
</svg>
