<svg width="12" height="12" viewBox="0 0 12 12" fill="none" xmlns="http://www.w3.org/2000/svg">
<g clip-path="url(#clip0_0_85)">
<path d="M3.99999 8.49993H7.99998M5.50883 1.38194L2.11768 4.0195C1.891 4.19581 1.77766 4.28397 1.696 4.39437C1.62367 4.49216 1.56979 4.60233 1.537 4.71946C1.49999 4.8517 1.49999 4.99529 1.49999 5.28246V8.89993C1.49999 9.45998 1.49999 9.74 1.60898 9.95392C1.70485 10.1421 1.85783 10.2951 2.046 10.3909C2.25991 10.4999 2.53993 10.4999 3.09999 10.4999H8.89998C9.46003 10.4999 9.74006 10.4999 9.95397 10.3909C10.1421 10.2951 10.2951 10.1421 10.391 9.95392C10.5 9.74 10.5 9.45998 10.5 8.89993V5.28246C10.5 4.99529 10.5 4.8517 10.463 4.71946C10.4302 4.60233 10.3763 4.49216 10.304 4.39437C10.2223 4.28397 10.109 4.19581 9.88229 4.0195L6.49114 1.38194C6.31547 1.24531 6.22764 1.177 6.13066 1.15074C6.04508 1.12757 5.95489 1.12757 5.86931 1.15074C5.77233 1.177 5.68449 1.24531 5.50883 1.38194Z" stroke="white" stroke-width="0.934028" stroke-linecap="round" stroke-linejoin="round"/>
</g>
<defs>
<clipPath id="clip0_0_85">
<rect width="11.2083" height="11.2083" fill="white" transform="scale(1.07063)"/>
</clipPath>
</defs>
</svg>
