<svg width="11" height="11" viewBox="0 0 11 11" fill="none" xmlns="http://www.w3.org/2000/svg">
<g clip-path="url(#clip0_14_1896)">
<path d="M6.87498 0.916611V1.55828C6.87498 1.81497 6.87498 1.94331 6.82503 2.04135C6.78109 2.12759 6.71097 2.19771 6.62473 2.24165C6.52669 2.29161 6.39834 2.29161 6.14165 2.29161H4.85832C4.60163 2.29161 4.47329 2.29161 4.37524 2.24165C4.289 2.19771 4.21889 2.12759 4.17495 2.04135C4.12499 1.94331 4.12499 1.81497 4.12499 1.55828V0.916611M3.75832 10.0833H7.24165C7.75503 10.0833 8.01172 10.0833 8.20781 9.98335C8.38029 9.89546 8.52052 9.75523 8.6084 9.58275C8.70831 9.38666 8.70831 9.12997 8.70831 8.61659V2.38327C8.70831 1.86989 8.70831 1.6132 8.6084 1.41712C8.52052 1.24464 8.38029 1.10441 8.20781 1.01652C8.01172 0.916611 7.75503 0.916611 7.24165 0.916611H3.75832C3.24494 0.916611 2.98825 0.916611 2.79217 1.01652C2.61969 1.10441 2.47946 1.24464 2.39157 1.41712C2.29166 1.6132 2.29166 1.86989 2.29166 2.38327V8.61659C2.29166 9.12997 2.29166 9.38666 2.39157 9.58275C2.47946 9.75523 2.61969 9.89546 2.79217 9.98335C2.98825 10.0833 3.24494 10.0833 3.75832 10.0833Z" stroke="black" stroke-width="0.896667" stroke-linecap="round" stroke-linejoin="round"/>
</g>
<defs>
<clipPath id="clip0_14_1896">
<rect width="10.0875" height="10.0875" fill="white" transform="scale(1.09046)"/>
</clipPath>
</defs>
</svg>
