<svg width="14" height="14" viewBox="0 0 14 14" fill="none" xmlns="http://www.w3.org/2000/svg">
<path d="M12.7046 6.25319L4.83128 1.44155C4.69867 1.36045 4.54684 1.31616 4.39142 1.31321C4.236 1.31027 4.0826 1.34879 3.94701 1.42481C3.81142 1.50083 3.69854 1.6116 3.61997 1.74573C3.5414 1.87986 3.49998 2.0325 3.49998 2.18795V11.8121C3.50011 11.9675 3.5416 12.12 3.6202 12.2541C3.6988 12.3881 3.81168 12.4989 3.94722 12.5748C4.08277 12.6508 4.2361 12.6894 4.39147 12.6865C4.54684 12.6836 4.69864 12.6394 4.83128 12.5585L12.7046 7.74684C12.8325 7.66863 12.9381 7.55888 13.0115 7.42811C13.0848 7.29734 13.1233 7.14993 13.1233 7.00002C13.1233 6.8501 13.0848 6.70269 13.0115 6.57192C12.9381 6.44115 12.8325 6.3314 12.7046 6.25319Z" fill="#081D3F"/>
</svg>
