<svg width="8" height="8" viewBox="0 0 8 8" fill="none" xmlns="http://www.w3.org/2000/svg">
<path fill-rule="evenodd" clip-rule="evenodd" d="M0 4.00231C0 1.7945 1.79537 0 4 0C6.20463 0 7.99999 1.7945 7.99999 4.00231C7.99999 6.20549 6.20463 7.99999 4 7.99999C1.79537 7.99999 0 6.20549 0 4.00231ZM5.46695 4.40744C5.50942 4.36499 5.56347 4.29939 5.57505 4.28395C5.63683 4.20291 5.66772 4.10257 5.66772 4.00262C5.66772 3.89032 5.63297 3.78612 5.56733 3.70122C5.56195 3.69585 5.55142 3.68438 5.53769 3.66944C5.51201 3.64149 5.47514 3.60136 5.43992 3.56615C5.12332 3.22655 4.29706 2.67083 3.86463 2.50103C3.79899 2.4744 3.63297 2.41613 3.54417 2.41227C3.45923 2.41227 3.37815 2.43157 3.30093 2.47016C3.2044 2.52418 3.12718 2.60909 3.08471 2.70942C3.05768 2.77889 3.01521 2.98728 3.01521 2.99114C2.97274 3.21883 2.94957 3.58931 2.94957 3.99838C2.94957 4.38853 2.97274 4.74319 3.00749 4.97474C3.00844 4.97569 3.01177 4.99225 3.01693 5.01798C3.03261 5.09619 3.06529 5.25913 3.10015 5.32592C3.1851 5.488 3.35112 5.58834 3.52872 5.58834H3.54417C3.66 5.58448 3.90324 5.48414 3.90324 5.48028C4.31251 5.31048 5.11946 4.78178 5.44378 4.4306L5.46695 4.40744Z" fill="#081D3F"/>
</svg>
