<svg width="3" height="1" viewBox="0 0 3 1" fill="none" xmlns="http://www.w3.org/2000/svg">
<path d="M2.79615 0.00101579C2.66715 0.0819384 2.54144 0.167601 2.41904 0.258004C2.39035 0.278828 2.36191 0.300159 2.33347 0.321744C2.22351 0.405544 2.1166 0.492138 2.01248 0.582541C1.99395 0.598032 1.97566 0.61403 1.95738 0.630282C1.84107 0.733128 1.72883 0.840546 1.62015 0.951264L1.65671 0.976658C1.66467 0.98244 1.67054 0.990633 1.67347 1.00002H0C0.00609459 0.993418 0.0124433 0.98707 0.0187918 0.980467C0.137298 0.858575 0.259613 0.741509 0.385737 0.629266C0.507121 0.522103 0.632483 0.419257 0.761824 0.320728C0.911141 0.20747 1.06655 0.100053 1.2245 0L2.79615 0.00101579Z" fill="white"/>
</svg>
