<svg width="1" height="1" viewBox="0 0 1 1" fill="none" xmlns="http://www.w3.org/2000/svg">
<path d="M0.543742 0.0323983L0.630773 0.300453C0.633724 0.309525 0.639481 0.317423 0.647213 0.32301C0.654945 0.328597 0.664252 0.331582 0.673791 0.331536H0.956517C0.965912 0.331904 0.97496 0.335188 0.982402 0.340934C0.989845 0.346679 0.995313 0.3546 0.998047 0.363596C1.00078 0.372592 1.00065 0.382216 0.99766 0.391132C0.994674 0.400047 0.988984 0.407811 0.981383 0.413345L0.753362 0.578952C0.745751 0.584468 0.740069 0.592241 0.737124 0.601167C0.734178 0.610094 0.734117 0.619721 0.736951 0.628684L0.823982 0.896739C0.826656 0.905769 0.826448 0.915408 0.823385 0.924313C0.820322 0.933218 0.814557 0.940946 0.806894 0.94642C0.799231 0.951894 0.790051 0.95484 0.780634 0.95485C0.771216 0.954859 0.762031 0.95193 0.754357 0.946471L0.526585 0.780864C0.518837 0.77528 0.509528 0.772275 0.499978 0.772275C0.490428 0.772275 0.481119 0.77528 0.473372 0.780864L0.24535 0.946471C0.237677 0.95193 0.228491 0.954859 0.219074 0.95485C0.209656 0.95484 0.200477 0.951894 0.192813 0.94642C0.18515 0.940946 0.179385 0.933218 0.176323 0.924313C0.17326 0.915408 0.173051 0.905769 0.175726 0.896739L0.263005 0.628684C0.265725 0.619714 0.265608 0.610122 0.262671 0.601221C0.259733 0.592319 0.254119 0.584542 0.246594 0.578952L0.018573 0.413345C0.010866 0.407719 0.00513455 0.399801 0.0021974 0.390722C-0.000739744 0.381644 -0.000732303 0.371869 0.00221884 0.362795C0.00516999 0.353721 0.0109137 0.345812 0.0186293 0.340198C0.0263449 0.334584 0.0356378 0.331552 0.0451797 0.331536H0.326911C0.336441 0.331544 0.34573 0.328544 0.353455 0.322962C0.361179 0.317381 0.366945 0.309504 0.369929 0.300453L0.45696 0.0323983C0.459733 0.0230416 0.465455 0.0148317 0.473275 0.00899312C0.481095 0.00315453 0.490592 0 0.500351 0C0.51011 0 0.519607 0.00315453 0.527427 0.00899312C0.535247 0.0148317 0.540969 0.0230416 0.543742 0.0323983Z" fill="white"/>
</svg>
