<svg width="1" height="1" viewBox="0 0 1 1" fill="none" xmlns="http://www.w3.org/2000/svg">
<path d="M0.999955 0.355083C0.978442 0.36609 0.957179 0.377847 0.935916 0.389104C0.808506 0.457979 0.683931 0.53094 0.562191 0.607986C0.435114 0.687701 0.311289 0.772085 0.190716 0.861139L0.265762 0.632751C0.268045 0.624569 0.268045 0.615918 0.265762 0.607736C0.263299 0.597081 0.257083 0.587669 0.248251 0.58122L0.0188627 0.414619C0.0110556 0.409011 0.00523561 0.401064 0.00224581 0.391928C-0.000743992 0.382793 -0.000748745 0.372942 0.00223245 0.363804C0.00521364 0.354665 0.0110261 0.346712 0.018828 0.341097C0.0266299 0.335482 0.0360164 0.332495 0.0456287 0.33257H0.3283C0.337896 0.332616 0.347259 0.329613 0.355037 0.323993C0.362815 0.318373 0.368607 0.310426 0.371576 0.301301L0.459128 0.0313879C0.462111 0.0222609 0.467902 0.0143105 0.475674 0.00867309C0.483447 0.00303569 0.492803 0 0.502405 0C0.512007 0 0.521362 0.00303569 0.529135 0.00867309C0.536908 0.0143105 0.542699 0.0222609 0.545681 0.0313879L0.633234 0.301301C0.636254 0.310809 0.64233 0.319053 0.650518 0.324753C0.658705 0.330452 0.668546 0.333288 0.678511 0.33282H0.961932C0.969662 0.332889 0.977239 0.33498 0.98391 0.338886C0.990581 0.342792 0.996113 0.348376 0.999955 0.355083Z" fill="#DBDBDB"/>
</svg>
