<svg width="7" height="7" viewBox="0 0 7 7" fill="none" xmlns="http://www.w3.org/2000/svg">
<path d="M6.98367 0.0165068V0.0896449C6.30841 0.20339 5.65561 0.424049 5.04983 0.743316C5.02799 0.75449 5.0064 0.766426 4.98482 0.777854C4.85547 0.847775 4.729 0.921844 4.60541 1.00006C4.4764 1.08099 4.3507 1.16665 4.22829 1.25706C4.1996 1.27788 4.17115 1.29922 4.14271 1.3208C4.03275 1.40461 3.92584 1.4912 3.82172 1.58161C3.80318 1.5971 3.78489 1.6131 3.76661 1.62935C3.6503 1.7322 3.53805 1.83962 3.42936 1.95035L3.46593 1.97574C3.47389 1.98153 3.47976 1.98972 3.48269 1.99911H3.38111C3.22226 2.16473 3.07222 2.33859 2.93162 2.51996L2.88819 2.57685C2.86457 2.60808 2.84121 2.63932 2.8181 2.67106L2.77061 2.81759C2.76761 2.82688 2.76174 2.83498 2.75385 2.84073C2.74595 2.84648 2.73644 2.84958 2.72668 2.84959H2.69189C2.65786 2.90038 2.62484 2.94965 2.59234 3.00018L2.5644 3.04463L2.54231 3.07967C2.40366 3.30357 2.27874 3.53568 2.16824 3.77474C2.13345 3.84914 2.10043 3.92381 2.06894 3.99999C1.99564 4.17674 1.92995 4.35739 1.87188 4.54192C1.82447 4.69209 1.78215 4.84446 1.7449 4.99904C1.74338 5.00589 1.7416 5.013 1.74008 5.01961C1.74804 5.02239 1.75509 5.0273 1.76046 5.0338C1.76583 5.04031 1.76932 5.04816 1.77055 5.0565C1.77178 5.06485 1.7707 5.07337 1.76744 5.08114C1.76417 5.08892 1.75883 5.09566 1.75201 5.10062L1.7162 5.12601C1.65402 5.41363 1.61159 5.70517 1.58923 5.99859C1.58542 6.04786 1.58212 6.09687 1.57958 6.14639C1.57958 6.16366 1.5778 6.18118 1.57704 6.1987C1.57473 6.1952 1.57302 6.19134 1.57196 6.18728C1.57196 6.18499 1.57196 6.18296 1.57069 6.18093C1.57055 6.1789 1.57055 6.17686 1.57069 6.17483V6.49989C1.57069 6.66801 1.57704 6.83468 1.58974 6.99992H0.0190464C0.00634879 6.83485 0 6.66817 0 6.49989V6.1761C2.53183e-05 6.18454 0.00239951 6.19281 0.00685669 6.19997C0.00685669 6.18245 0.0083804 6.16493 0.00939621 6.14766C0.0119357 6.09814 0.0152371 6.04913 0.0190464 5.99986C0.044497 5.66296 0.0963781 5.32857 0.174211 4.9998C0.210441 4.84489 0.252766 4.69252 0.301187 4.54269C0.359257 4.35781 0.425284 4.177 0.499269 4.00024C0.530759 3.92406 0.563772 3.8494 0.598564 3.77474C0.709061 3.53568 0.833981 3.30357 0.972634 3.07967C0.989141 3.05428 1.0059 3.02685 1.02342 3.00018C1.116 2.85566 1.21427 2.71486 1.31801 2.57812C1.47037 2.37609 1.63436 2.1831 1.80915 2.00012C1.81525 1.99352 1.82159 1.98717 1.82794 1.98057C1.94645 1.85867 2.06877 1.7416 2.1949 1.62935C2.31629 1.52219 2.44166 1.41934 2.57101 1.3208C2.72033 1.20754 2.87575 1.10012 3.03371 1.00006C3.15746 0.921844 3.28393 0.847775 3.41311 0.777854C4.32802 0.282714 5.34899 0.0158647 6.38917 0H6.61315C6.73759 0.00177766 6.86101 0.00761855 6.98367 0.0165068Z" fill="#32314B"/>
</svg>
