<svg width="3" height="6" viewBox="0 0 3 6" fill="none" xmlns="http://www.w3.org/2000/svg">
<path d="M2.76417 0.19621C2.76212 0.203528 2.76212 0.211265 2.76417 0.218583L2.84269 0.459315C2.8451 0.467439 2.84491 0.476111 2.84216 0.484124C2.8394 0.492136 2.83422 0.499089 2.82732 0.504014C2.82043 0.508939 2.81217 0.51159 2.80369 0.511599C2.79522 0.511607 2.78696 0.508972 2.78005 0.50406L2.57489 0.355281C2.56796 0.350275 2.55962 0.347582 2.55106 0.347582C2.54251 0.347582 2.53417 0.350275 2.52724 0.355281L2.32208 0.50406C2.31652 0.50817 2.31 0.510789 2.30314 0.511665C2.29628 0.512542 2.28931 0.511648 2.2829 0.509069C2.27648 0.506489 2.27084 0.50231 2.26649 0.49693C2.26215 0.491549 2.25926 0.485147 2.25809 0.478332C2.38964 0.378549 2.52657 0.283912 2.66573 0.195762C2.77476 0.126854 2.88617 0.0615999 2.99998 0C2.99741 0.0090627 2.9918 0.0169643 2.98409 0.0223729L2.77893 0.171376C2.77119 0.177612 2.76595 0.186427 2.76417 0.19621ZM2.57646 1.53612L2.5382 1.58624C2.51739 1.61375 2.49681 1.64127 2.47645 1.66924L2.51314 1.55737C2.51499 1.55108 2.51833 1.54533 2.52287 1.5406C2.52742 1.53588 2.53304 1.53232 2.53926 1.53023C2.54547 1.52815 2.5521 1.52759 2.55858 1.52862C2.56506 1.52964 2.57119 1.53222 2.57646 1.53612ZM1.53769 1.89923L1.45647 1.95807L1.33253 2.04756C1.32573 2.05257 1.32066 2.05957 1.31801 2.06758C1.31537 2.0756 1.31528 2.08424 1.31776 2.09231L1.39674 2.33438C1.399 2.34248 1.39871 2.35109 1.39592 2.35902C1.39312 2.36695 1.38795 2.37383 1.3811 2.37872C1.37426 2.38361 1.36607 2.38627 1.35766 2.38634C1.34925 2.38642 1.34102 2.3839 1.33409 2.37913L1.12916 2.2299C1.12219 2.22488 1.11381 2.22217 1.10522 2.22217C1.09663 2.22217 1.08825 2.22488 1.08128 2.2299L0.876121 2.37913C0.869192 2.3839 0.860962 2.38642 0.852551 2.38634C0.84414 2.38627 0.835956 2.38361 0.829111 2.37872C0.822266 2.37383 0.817094 2.36695 0.814297 2.35902C0.811499 2.35109 0.811213 2.34248 0.813477 2.33438L0.892006 2.09343C0.894387 2.08535 0.89425 2.07674 0.891611 2.06875C0.888973 2.06075 0.883959 2.05375 0.87724 2.04868L0.849945 2.02877C0.864487 2.0064 0.879253 1.98223 0.89469 1.95874C0.97625 1.83142 1.06283 1.70737 1.15422 1.58691L1.22223 1.79743C1.22488 1.80562 1.23005 1.81276 1.237 1.81782C1.24395 1.82288 1.25233 1.82562 1.26093 1.82562H1.51531C1.5237 1.82608 1.53174 1.82911 1.53835 1.83429C1.54496 1.83947 1.54981 1.84656 1.55226 1.8546C1.5547 1.86264 1.55461 1.87123 1.552 1.87921C1.5494 1.8872 1.5444 1.89418 1.53769 1.89923ZM1.53769 3.80943L1.50614 3.8318L1.33253 3.95821C1.32563 3.96312 1.32047 3.97011 1.31782 3.97816C1.31516 3.98621 1.31514 3.99489 1.31776 4.00295L1.39607 4.24391C1.39847 4.25203 1.39829 4.2607 1.39553 4.26872C1.39277 4.27673 1.38759 4.28368 1.38069 4.28861C1.3738 4.29353 1.36554 4.29618 1.35706 4.29619C1.34859 4.2962 1.34033 4.29356 1.33342 4.28865L1.12849 4.13965C1.12152 4.13462 1.11314 4.13192 1.10455 4.13192C1.09595 4.13192 1.08758 4.13462 1.08061 4.13965L0.87545 4.28865C0.868545 4.29356 0.860281 4.2962 0.851808 4.29619C0.843334 4.29618 0.835075 4.29353 0.82818 4.28861C0.821285 4.28368 0.816098 4.27673 0.813343 4.26872C0.810587 4.2607 0.810399 4.25203 0.812806 4.24391L0.891334 4.00295C0.893849 3.99488 0.893777 3.98623 0.89113 3.97821C0.888482 3.97019 0.88339 3.96319 0.876568 3.95821L0.671409 3.80898C0.664475 3.80392 0.659318 3.79679 0.656676 3.78862C0.654033 3.78046 0.65404 3.77166 0.656695 3.7635C0.65935 3.75533 0.664518 3.74822 0.67146 3.74316C0.678402 3.73811 0.686763 3.73539 0.695348 3.73537H0.949504C0.955731 3.73536 0.961873 3.73393 0.967459 3.73117C0.973044 3.72842 0.977923 3.72442 0.981721 3.71949C0.984494 3.71574 0.986681 3.71159 0.988209 3.70718L1.06651 3.46623C1.06918 3.45806 1.07436 3.45095 1.08131 3.44591C1.08826 3.44087 1.09663 3.43815 1.10522 3.43815C1.11381 3.43815 1.12217 3.44087 1.12913 3.44591C1.13608 3.45095 1.14126 3.45806 1.14392 3.46623L1.22223 3.70718C1.22376 3.71159 1.22594 3.71574 1.22872 3.71949C1.23251 3.72442 1.23739 3.72842 1.24298 3.73117C1.24856 3.73393 1.25471 3.73536 1.26093 3.73537H1.51531C1.51988 3.73539 1.52441 3.73614 1.52874 3.73761C1.53575 3.74019 1.54192 3.74465 1.54657 3.7505C1.55122 3.75635 1.55417 3.76337 1.55509 3.77079C1.55602 3.77821 1.55488 3.78574 1.55181 3.79255C1.54874 3.79937 1.54385 3.8052 1.53769 3.80943ZM2.04175 1.07725C2.03917 1.08541 2.03917 1.09416 2.04175 1.10231L2.11938 1.34327C2.12173 1.35136 2.12152 1.35998 2.11876 1.36794C2.11601 1.3759 2.11085 1.38282 2.104 1.38773C2.09716 1.39264 2.08895 1.3953 2.08053 1.39535C2.0721 1.3954 2.06387 1.39284 2.05696 1.38801L1.8518 1.23878C1.84483 1.23376 1.83646 1.23106 1.82786 1.23106C1.81927 1.23106 1.81089 1.23376 1.80392 1.23878L1.59876 1.38801C1.59186 1.39284 1.58362 1.3954 1.5752 1.39535C1.56677 1.3953 1.55857 1.39264 1.55172 1.38773C1.54487 1.38282 1.53972 1.3759 1.53696 1.36794C1.53421 1.35998 1.53399 1.35136 1.53634 1.34327L1.61465 1.10231C1.61722 1.09416 1.61722 1.08541 1.61465 1.07725C1.61316 1.0704 1.60974 1.06411 1.6048 1.05913C1.70921 0.951741 1.81697 0.848602 1.92809 0.749714L1.94599 0.804975C1.9485 0.8134 1.95367 0.820786 1.96073 0.826028C1.96779 0.831271 1.97635 0.834088 1.98514 0.83406H2.23863C2.2472 0.834153 2.25553 0.836935 2.26244 0.842015C2.26935 0.847095 2.27449 0.854215 2.27713 0.862372C2.27978 0.870529 2.27979 0.87931 2.27718 0.887477C2.27457 0.895644 2.26946 0.902784 2.26257 0.90789L2.05741 1.05667C2.05007 1.06162 2.04456 1.06886 2.04175 1.07725ZM0.893572 2.83911C0.893004 2.8447 0.89123 2.85009 0.888371 2.85492C0.885512 2.85975 0.881638 2.8639 0.877016 2.86708L0.671857 3.01631C0.665087 3.02134 0.660035 3.02833 0.657392 3.03634C0.654749 3.04435 0.654644 3.05298 0.657091 3.06105L0.735396 3.30223C0.737896 3.31035 0.737783 3.31904 0.735072 3.32709C0.732362 3.33513 0.72719 3.34212 0.72029 3.34707C0.713389 3.35202 0.705108 3.35467 0.696618 3.35465C0.688127 3.35464 0.679857 3.35195 0.672975 3.34698L0.467816 3.1982C0.46093 3.19297 0.452522 3.19014 0.443877 3.19014C0.435232 3.19014 0.426825 3.19297 0.419938 3.1982L0.258406 3.31566C0.309566 3.15278 0.367735 2.99349 0.432915 2.83777C0.460657 2.77065 0.489742 2.70488 0.520393 2.6391L0.560887 2.76417C0.563526 2.77237 0.568688 2.77954 0.575638 2.78464C0.582588 2.78974 0.590971 2.79252 0.599592 2.79258H0.853077C0.858932 2.79255 0.864724 2.79379 0.870059 2.7962C0.875393 2.79861 0.880144 2.80215 0.883988 2.80657C0.887831 2.81098 0.890677 2.81618 0.892331 2.8218C0.893985 2.82741 0.894408 2.83332 0.893572 2.83911ZM0.671857 4.93791C0.665035 4.9429 0.659944 4.94989 0.657296 4.95792C0.654648 4.96594 0.654576 4.97459 0.657091 4.98266L0.735396 5.22406C0.737896 5.23218 0.737783 5.24087 0.735072 5.24892C0.732362 5.25696 0.72719 5.26395 0.72029 5.2689C0.713389 5.27385 0.705108 5.2765 0.696618 5.27648C0.688127 5.27647 0.679857 5.27378 0.672975 5.26881L0.467816 5.12003C0.460886 5.1149 0.452495 5.11214 0.443877 5.11214C0.435259 5.11214 0.426869 5.1149 0.419938 5.12003L0.215003 5.2697C0.208126 5.27477 0.199825 5.27753 0.191285 5.27759C0.182745 5.27765 0.174404 5.27501 0.167455 5.27005C0.160506 5.26508 0.155304 5.25805 0.152592 5.24995C0.149881 5.24185 0.1498 5.2331 0.152359 5.22496L0.230664 4.98355C0.233248 4.97549 0.233211 4.96682 0.230558 4.95878C0.227905 4.95074 0.222773 4.94375 0.215898 4.93881L0.010739 4.78869C0.00643901 4.78563 0.00278871 4.78175 0 4.77728C0 4.76184 0.00134237 4.7464 0.00223729 4.73119C0.00595878 4.72612 0.010854 4.72202 0.0165037 4.71925C0.0221535 4.71649 0.0283895 4.71513 0.0346779 4.7153H0.288162C0.296784 4.71524 0.305167 4.71247 0.312117 4.70736C0.319067 4.70226 0.324229 4.6951 0.326867 4.68689L0.354833 4.60098L0.405172 4.44593C0.407839 4.43777 0.413019 4.43066 0.419971 4.42562C0.426922 4.42058 0.43529 4.41786 0.443877 4.41786C0.452465 4.41786 0.460833 4.42058 0.467784 4.42562C0.474736 4.43066 0.479915 4.43777 0.482582 4.44593L0.532921 4.60098L0.560887 4.68689C0.563526 4.6951 0.568688 4.70226 0.575638 4.70736C0.582588 4.71247 0.590971 4.71524 0.599592 4.7153H0.853077C0.861674 4.71524 0.870069 4.71791 0.877047 4.72293C0.884025 4.72795 0.889223 4.73506 0.891889 4.74324C0.894556 4.75141 0.894551 4.76022 0.891877 4.76839C0.889203 4.77656 0.883998 4.78367 0.877016 4.78869L0.671857 4.93791Z" fill="#DBDBDB"/>
</svg>
