<svg width="7" height="7" viewBox="0 0 7 7" fill="none" xmlns="http://www.w3.org/2000/svg">
<path d="M6.98339 0.0165062V6.99989H0.0190456C0.00634853 6.83466 0 6.66791 0 6.49963V6.17585C2.53173e-05 6.18429 0.00239941 6.19256 0.00685642 6.19972C0.00685642 6.1822 0.00838006 6.16468 0.00939583 6.14741C0.0119352 6.09789 0.0152365 6.04888 0.0190456 5.99962C0.0444952 5.66273 0.0963742 5.32836 0.174204 4.9996C0.210433 4.84469 0.252756 4.69233 0.301174 4.5425C0.359242 4.35763 0.425267 4.17683 0.499249 4.00008C0.530737 3.9239 0.56375 3.84924 0.59854 3.77458C0.709032 3.53554 0.833948 3.30343 0.972595 3.07955C0.989101 3.05415 1.00586 3.02673 1.02338 3.00006C1.11596 2.85554 1.21423 2.71475 1.31796 2.57801C1.47031 2.37599 1.6343 2.18301 1.80908 2.00004C1.81517 1.99344 1.82152 1.98709 1.82787 1.98049C1.94638 1.8586 2.06869 1.74153 2.19481 1.62929C2.3162 1.52212 2.44156 1.41928 2.5709 1.32075C2.72022 1.20749 2.87563 1.10007 3.03358 1.00002C3.15734 0.921807 3.2838 0.847741 3.41297 0.777822C4.32785 0.282703 5.34877 0.0158641 6.38891 0H6.61289C6.73732 0.00177759 6.86073 0.00761824 6.98339 0.0165062Z" fill="#3E436D"/>
</svg>
